<svg xmlns="http://www.w3.org/2000/svg" width="237" height="202" viewBox="0 0 237 202"><defs><linearGradient id="a" x1="0%" x2="100%" y1="50%" y2="50%"><stop offset="0%" stop-color="#2D3A40"/><stop offset="100%" stop-color="#3A4952"/></linearGradient></defs><g transform="translate(.568 1.49)" fill="none" fill-rule="evenodd"><path d="M236 193.324c0 3.673-2.981 6.654-6.654 6.654H6.654C2.981 200 0 197 0 193.324V6.653C0 2.98 2.982 0 6.654 0h222.691c3.673 0 6.654 2.98 6.654 6.653V193.324z" fill="#FFF"/><path d="M24.666 200" fill="#2D3A50"/><path d="M236 193.324c0 3.673-2.981 6.654-6.654 6.654H6.654C2.981 200 0 197 0 193.324V6.653C0 2.98 2.982 0 6.654 0h222.691c3.673 0 6.654 2.98 6.654 6.653v186.671z" fill="url(#a)"/><path d="M149.421 159.202c13.798-5.453 22.255-14.588 22.255-24.585 0-11.212-10.279-19.91-25.71-19.91-16.377 0-27.548 10.143-27.548 24.603 0 9.997 8.757 18.831 22.959 24.417 1.843.74 2.117.751 3.317.751h3.924c1.201 0 1.843-.019 2.562-.739z" fill="#283940"/><path d="M118.371 157.647c-15.786 0-25.853-11.524-25.853-26.791 0-13.682 8.83-23.277 22.96-23.277 13.959 0 23.255 9.276 23.255 19.984 0 9.997-7.275 18.47-20.362 20.085h-.002z" fill="#283940"/><path d="M118.174 176.18c14.28 0 23.938-6.88 23.938-17.393 0-9.433-7.855-16.303-20.144-16.303-15.348 0-26.602 9.257-26.602 22.637 0 11.621 8.933 19.058 22.808 19.058zm21.246-15.589c0 8.073-6.114 13.25-15.15 13.25-10.639 0-18.024-7.256-18.024-17.532 0-8.831 5.613-13.977 15.25-13.977 8.112 0 14.733 4.664 14.943 12.272 0 .002-.02.02-.02.03z" fill="#DDD"/><path d="M161.125 176.18c10.31 0 17.432-4.607 17.432-12.663 0-7.11-5.15-12.09-14.625-12.09-8.933 0-15.25 4.589-15.567 12.389a3.122 3.122 0 0 0-.007.146c0 7.954 6.456 12.218 15.133 12.218zm-2.604-21.566c5.533 0 9.715 3.457 9.715 7.916 0 4.33-3.842 7.675-9.033 7.675-5.515 0-9.854-3.557-9.854-7.897 0-4.291 3.981-7.695 9.172-7.695z" fill="#DDD"/></g></svg>
