<svg xmlns="http://www.w3.org/2000/svg" width="142" height="305" viewBox="0 0 142 305"><g transform="translate(-849 -18)" fill="none" fill-rule="evenodd"><g fill="#FFF"><path d="M871.589 296.291c-1.93.404-4.053.71-6.342.894-22.77 1.842-42.692-15.333-44.523-38.172-1.839-22.84 15.253-42.82 38.02-44.66 2.276-.183 4.59-.28 6.91-.28 7.425 0 14.564 1.981 20.83 5.681 12.906 7.632 20.72 21.84 20.72 36.845 0 19.25-11.041 36.345-27.945 42.437a52.022 52.022 0 0 1-7.67 2.255zm-38.659-63.187c-4.037.807-7.81 1.96-11.19 3.417-16.948 7.287-27.898 23.616-25.646 41.647 1.81 5.89 5.16 11.16 10.12 15.24a13.83 13.83 0 0 0 3.54 2.45c-15.613-20.144-15.169-47.683 1.27-71.754z"/><path d="M932.381 226.922c2.954 3.07 6.23 5.87 9.787 8.326 9.48 6.552 20.051 9.998 31.27 9.998 13.383 0 25.955-5.556 34.49-15.31 8.534-9.753 12.988-22.241 12.988-35.625 0-13.383-4.454-25.871-12.988-35.28-8.535-9.41-18.86-14.428-31.51-14.428-11.571 0-22.53 3.733-31.96 10.772-3.648 2.74-6.996 5.89-9.993 9.416-4.488 12.926-5.504 26.66-2.832 40.072 3.096 15.35 11.323 29.626 22.53 40.965zm63.164-60.14c4.832 4.978 7.328 11.57 7.328 18.574 0 7-2.496 13.596-7.328 18.574-4.832 4.977-11.22 7.496-18.142 7.496-6.91 0-13.334-2.52-18.167-7.496-4.833-4.978-7.302-11.575-7.302-18.574 0-7 2.469-13.596 7.302-18.574 4.833-4.978 11.257-7.497 18.167-7.497 6.92 0 13.309 2.519 18.142 7.497z"/><path d="M955.022 61.75c-5.113 3.916-9.904 8.53-14.276 13.745-9.96 11.87-16.43 26.345-18.88 42.593-2.46 11.577-3.01 18.582-1.79 32.446 1.22 13.863 4.45 30.167 9.55 48.497 5.09 18.33 11.84 38.49 19.91 59.436 8.07 20.943 17.42 39.735 27.62 54.645l-2.39 3.106c12.31 18.135 28.66 31.585 48.29 39.117l25.56-79.44c-47.8-4.36-68.58-29.542-79.4-58.172-10.81-28.62-10.807-59.632-4.05-89.354 1.81-7.892 3.62-11.232 8.08-18.34 4.45-7.107 11.22-14.655 19.59-21.766 2.46-2.13 4.87-4.13 7.17-5.97 1.34-.92 2.58-1.75 3.73-2.48 1.66-1.03 2.89-1.66 4.31-2.48 2.25-1.23 3.9-1.9 5.76-2.91 2.46-1.38 4.35-2.25 6.33-3.1 3.16-1.37 5.43-2.18 8.21-3.11 8.32-2.77 16.43-2.2 24.62 1.77 2.34 1.11 4.5 1.95 6.36 2.91 4.21 2.13 7.49 4.5 9.9 7.21 2.41 2.71 3.62 5.4 4.87 7.58 1.23 1.92 1.33 3.42 1.33 4.84 0 2.21-1.12 5.21-3.34 8.92-2.22 3.71-5.54 8.34-9.99 13.78-4.45 5.44-9.63 11.46-15.26 17.87-5.63 6.41-11.46 12.8-17.15 18.75-5.7 5.96-11.17 11.32-16.14 15.76-4.97 4.45-9.27 8.03-12.69 10.66l-4.87-.92-12.1-2.4-3.43-.64-4.14-2.28-5.63-7.7zm100.128-24.07c-4.02-1.92-7.66-2.9-10.8-2.91-2.92 0-6.16.8-9.65 2.48-12.83 6.23-21.13 16.76-24.45 29.94-3.33 13.18 4.9 25.94 18.02 31.97 13.1 3.41 26.41-2.06 31.88-14.76 2.77-6.42 3.34-13.23 1.96-20.11-1.38-6.87-4.22-13.38-8.42-19.31-4.2-5.93-9.46-10.65-15.45-13.88-1.23-.64-2.43-1.17-3.63-1.66zm-138.456 258.22c1.81 5.9 5.16 11.15 10.12 15.24 12.93 10.64 33.04 8.94 41.65-1.26 1.92-2.28 3.6-4.78 4.91-6.43l21.02-80.37c2.31-8.4 2.99-16.97 1.96-25.06-1.02-8.1-3.84-15.84-8.18-22.59-12.92-20.15-42.63-20.4-57.9-2.17-15.27 18.23-15.53 47.67-1.83 64.92 3.54 4.53 8.08 8.44 13.52 11.71z"/></g></g></svg>
