<svg xmlns="http://www.w3.org/2000/svg" width="90" height="171" viewBox="0 0 90 171"><g transform="translate(-476 -191)" fill="none" fill-rule="evenodd"><g transform="translate(476 191)"><path d="M31.227 134.35C24.809 139.766 15.14 146.573 8.703 153.092c-9.223 9.293-1.73 17.547.333 18.097 1.446.393 3.348-.42 4.966-2.102 9.792-10.208 17.66-20.181 23.206-30.024" fill="#FFF"/><path d="M7.506 170.348c2.303-1.04 5.043-3.38 7.608-5.027 5.68-3.645 10.25-8.017 14.512-12.492C49.182 132.732 62.53 109.072 73.868 83.643c10.588-23.728 15.848-49.28 15.48-74.34-.104-7.216-3.346-13.615-9.118-17.12C72.353-4.145 61.685-.388 54.067 3.518c-9.02 4.763-16.268 11.834-20.854 21.646-9.82 21.52-11.52 45.54-4.578 67.847 2.703 8.78 6.895 17.032 12.363 24.953 5.932 8.632 12.845 15.692 20.203 21.518" fill="#F44336"/><path d="M21.127 160.573c-3.425-.993-6.463-3.034-8.772-6.047s-3.625-6.444-3.458-9.925c.166-3.482 1.41-6.666 3.535-9.114 3.952-4.53 9.552-7.596 15.318-8.626 4.31-.77 9.03.432 13.08 3.235 4.041 2.804 7.008 6.938 8.11 8.913 2.213 3.937 2.213 10.296 0 14.232-1.245 2.225-3.422 3.936-5.995 5.708-2.573 1.772-5.478 3.316-8.57 3.767C25.108 162.172 23.12 161.067 21.127 160.573z" fill="#FFF"/><path d="M32.167 154.547c-2.538-3.547-3.598-7.982-2.838-12.118.761-4.136 3.138-7.582 6.443-9.74 2.43-1.6 5.315-2.42 8.272-2.187 2.957.233 5.734 1.527 7.811 3.706 1.158 1.214 2.129 2.588 2.83 3.997 1.01 4.084-.338 8.587-3.098 11.694-2.76 2.55-6.01 4.046-9.453 4.362-2.59.233-5.295-.166-6.52-2.02" fill="#00ACFF"/><path d="M73.407 84.898C50.259 71.907 33.592 50.196 26.562 25.08 19.53-.09 0 11.297 0 11.297s17.15 19.227 31.42 47.364C45.69 86.8 67.858 109.073 67.858 109.073s-3.73-17.253-5.553-24.175z" fill="#FFF"/><path d="M71.013 61.244l3.37 11.165c3.81-2.11 7.397-5.382 10.348-9.087 1.44-1.81 2.537-3.917 3.42-6.117C79.514 54.466 74.13 56.81 71.013 61.244z" fill="#3A4952"/><path d="M2.12 135.348l9.105-.763c3.77 5.942 8.076 11.42 12.666 16.715 5.405 6.237 10.977 11.786 16.41 16.242-4.488.883-9.106 1.325-13.524 1.325-10.415-.66-18.783-5.48-24.657-13.74zm29.463 1.992c2.042-3.21 3.425-6.67 4.817-10.174l10.178 1.469c-1.66 4.353-3.98 11.505-5.53 13.57-2.89 3.85-11.01 1.157-9.465-4.865z" fill="#FFF"/></g></g></svg>
